REM DIRINDEX 1\2,1\3\4,1\3\5,1\3\6,1\7,1\8,1\9,1\10,1\11,1\12\13,1\12\14,1\12\15,1\12\16,1\17
REM DIRNAME folder01,folder02,folder03,folder04,folder05,folder06,folder07,folder08,folder09,folder10,folder11,folder12,folder13,folder14,folder15,folder16,folder17
TITLE ""
FILE "DB3000_5th_MK_02.mp3" MP3
  TRACK 01 AUDIO
    TITLE "14:cjc025_6635"
    INDEX 01 00:00:00
  TRACK 02 AUDIO
    TITLE "14:cjc025_6636"
    INDEX 01 00:02:16
  TRACK 03 AUDIO
    TITLE "14:cjc025_6637"
    INDEX 01 00:04:15
  TRACK 04 AUDIO
    TITLE "14:cjc025_6638"
    INDEX 01 00:06:00
  TRACK 05 AUDIO
    TITLE "14:cjc025_6639"
    INDEX 01 00:07:58
  TRACK 06 AUDIO
    TITLE "14:cjc025_6640"
    INDEX 01 00:09:65
  TRACK 07 AUDIO
    TITLE "14:cjc025_6641"
    INDEX 01 00:11:46
  TRACK 08 AUDIO
    TITLE "14:cjc025_6642"
    INDEX 01 00:13:32
  TRACK 09 AUDIO
    TITLE "14:cjc025_6643"
    INDEX 01 00:15:28
  TRACK 10 AUDIO
    TITLE "14:cjc025_6644"
    INDEX 01 00:17:14
  TRACK 11 AUDIO
    TITLE "14:cjc025_6645"
    INDEX 01 00:19:15
  TRACK 12 AUDIO
    TITLE "14:cjc025_6646"
    INDEX 01 00:21:08
  TRACK 13 AUDIO
    TITLE "14:cjc025_6647"
    INDEX 01 00:22:66
  TRACK 14 AUDIO
    TITLE "14:cjc025_6648"
    INDEX 01 00:24:72
  TRACK 15 AUDIO
    TITLE "14:cjc025_6649"
    INDEX 01 00:26:60
  TRACK 16 AUDIO
    TITLE "14:cjc025_6650"
    INDEX 01 00:28:49
  TRACK 17 AUDIO
    TITLE "14:cjc025_6651"
    INDEX 01 00:30:40
  TRACK 18 AUDIO
    TITLE "14:cjc025_6652"
    INDEX 01 00:32:37
  TRACK 19 AUDIO
    TITLE "14:cjc025_6653"
    INDEX 01 00:34:43
  TRACK 20 AUDIO
    TITLE "14:cjc025_6654"
    INDEX 01 00:36:44
  TRACK 21 AUDIO
    TITLE "14:cjc025_6655"
    INDEX 01 00:38:31
  TRACK 22 AUDIO
    TITLE "14:cjc025_6656"
    INDEX 01 00:40:26
  TRACK 23 AUDIO
    TITLE "14:cjc025_6657"
    INDEX 01 00:42:19
  TRACK 24 AUDIO
    TITLE "14:cjc025_6658"
    INDEX 01 00:44:14
  TRACK 25 AUDIO
    TITLE "14:cjc025_6659"
    INDEX 01 00:46:06
  TRACK 26 AUDIO
    TITLE "14:cjc025_6660"
    INDEX 01 00:47:74
  TRACK 27 AUDIO
    TITLE "14:cjc025_6661"
    INDEX 01 00:49:57
  TRACK 28 AUDIO
    TITLE "14:cjc025_6662"
    INDEX 01 00:51:44
  TRACK 29 AUDIO
    TITLE "14:cjc025_6663"
    INDEX 01 00:53:39
  TRACK 30 AUDIO
    TITLE "14:cjc025_6664"
    INDEX 01 00:55:30
  TRACK 31 AUDIO
    TITLE "14:cjc025_6665"
    INDEX 01 00:57:17
  TRACK 32 AUDIO
    TITLE "14:cjc025_6666"
    INDEX 01 00:58:73
  TRACK 33 AUDIO
    TITLE "14:cjc025_6667"
    INDEX 01 01:00:66
  TRACK 34 AUDIO
    TITLE "14:cjc025_6668"
    INDEX 01 01:02:69
  TRACK 35 AUDIO
    TITLE "14:cjc025_6669"
    INDEX 01 01:04:56
  TRACK 36 AUDIO
    TITLE "14:cjc025_6670"
    INDEX 01 01:06:59
  TRACK 37 AUDIO
    TITLE "14:cjc025_6671"
    INDEX 01 01:08:56
  TRACK 38 AUDIO
    TITLE "14:cjc025_6672"
    INDEX 01 01:10:45
  TRACK 39 AUDIO
    TITLE "14:cjc025_6673"
    INDEX 01 01:12:28
  TRACK 40 AUDIO
    TITLE "14:cjc025_6674"
    INDEX 01 01:14:21
  TRACK 41 AUDIO
    TITLE "14:cjc025_6675"
    INDEX 01 01:16:11
  TRACK 42 AUDIO
    TITLE "14:cjc025_6676"
    INDEX 01 01:18:06
  TRACK 43 AUDIO
    TITLE "14:cjc025_6677"
    INDEX 01 01:19:62
  TRACK 44 AUDIO
    TITLE "14:cjc025_6678"
    INDEX 01 01:21:53
  TRACK 45 AUDIO
    TITLE "14:cjc025_6679"
    INDEX 01 01:23:52
  TRACK 46 AUDIO
    TITLE "14:cjc025_6680"
    INDEX 01 01:25:43
  TRACK 47 AUDIO
    TITLE "14:cjc025_6681"
    INDEX 01 01:27:32
  TRACK 48 AUDIO
    TITLE "14:cjc025_6682"
    INDEX 01 01:29:25
  TRACK 49 AUDIO
    TITLE "14:cjc025_6683"
    INDEX 01 01:31:18
  TRACK 50 AUDIO
    TITLE "14:cjc025_6684"
    INDEX 01 01:33:15
  TRACK 51 AUDIO
    TITLE "14:cjc025_6685"
    INDEX 01 01:35:10
  TRACK 52 AUDIO
    TITLE "14:cjc025_6686"
    INDEX 01 01:37:26
  TRACK 53 AUDIO
    TITLE "14:cjc025_6687"
    INDEX 01 01:39:43
  TRACK 54 AUDIO
    TITLE "14:cjc025_6688"
    INDEX 01 01:41:26
  TRACK 55 AUDIO
    TITLE "14:cjc025_6689"
    INDEX 01 01:43:19
  TRACK 56 AUDIO
    TITLE "14:cjc025_6690"
    INDEX 01 01:45:18
  TRACK 57 AUDIO
    TITLE "14:cjc025_6691"
    INDEX 01 01:47:19
  TRACK 58 AUDIO
    TITLE "14:cjc025_6692"
    INDEX 01 01:49:16
  TRACK 59 AUDIO
    TITLE "14:cjc025_6693"
    INDEX 01 01:51:11
  TRACK 60 AUDIO
    TITLE "14:cjc025_6694"
    INDEX 01 01:52:71
  TRACK 61 AUDIO
    TITLE "14:cjc025_6695"
    INDEX 01 01:54:66
  TRACK 62 AUDIO
    TITLE "14:cjc025_6696"
    INDEX 01 01:56:69
  TRACK 63 AUDIO
    TITLE "14:cjc025_6697"
    INDEX 01 01:58:56
  TRACK 64 AUDIO
    TITLE "14:cjc025_6698"
    INDEX 01 02:00:47
  TRACK 65 AUDIO
    TITLE "14:cjc025_6699"
    INDEX 01 02:02:60
  TRACK 66 AUDIO
    TITLE "14:cjc025_6700"
    INDEX 01 02:04:49
  TRACK 67 AUDIO
    TITLE "14:cjc025_6701"
    INDEX 01 02:06:54
  TRACK 68 AUDIO
    TITLE "14:cjc025_6702"
    INDEX 01 02:08:47
  TRACK 69 AUDIO
    TITLE "14:cjc025_6703"
    INDEX 01 02:10:40
  TRACK 70 AUDIO
    TITLE "14:cjc025_6704"
    INDEX 01 02:12:44
  TRACK 71 AUDIO
    TITLE "14:cjc025_6705"
    INDEX 01 02:14:41
  TRACK 72 AUDIO
    TITLE "14:cjc025_6706"
    INDEX 01 02:16:40
  TRACK 73 AUDIO
    TITLE "14:cjc025_6707"
    INDEX 01 02:18:37
  TRACK 74 AUDIO
    TITLE "14:cjc025_6708"
    INDEX 01 02:20:34
  TRACK 75 AUDIO
    TITLE "14:cjc025_6709"
    INDEX 01 02:22:31
  TRACK 76 AUDIO
    TITLE "14:cjc025_6710"
    INDEX 01 02:24:32
  TRACK 77 AUDIO
    TITLE "14:cjc025_6711"
    INDEX 01 02:26:29
  TRACK 78 AUDIO
    TITLE "14:cjc025_6712"
    INDEX 01 02:28:16
  TRACK 79 AUDIO
    TITLE "14:cjc025_6713"
    INDEX 01 02:30:17
  TRACK 80 AUDIO
    TITLE "14:cjc025_6714"
    INDEX 01 02:32:04
  TRACK 81 AUDIO
    TITLE "14:cjc025_6715"
    INDEX 01 02:33:70
  TRACK 82 AUDIO
    TITLE "14:cjc025_6716"
    INDEX 01 02:35:61
  TRACK 83 AUDIO
    TITLE "14:cjc025_6717"
    INDEX 01 02:37:44
  TRACK 84 AUDIO
    TITLE "14:cjc025_6718"
    INDEX 01 02:39:51
  TRACK 85 AUDIO
    TITLE "14:cjc025_6719"
    INDEX 01 02:41:36
  TRACK 86 AUDIO
    TITLE "14:cjc025_6720"
    INDEX 01 02:43:27
  TRACK 87 AUDIO
    TITLE "14:cjc025_6721"
    INDEX 01 02:45:20
  TRACK 88 AUDIO
    TITLE "14:cjc025_6722"
    INDEX 01 02:46:31
  TRACK 89 AUDIO
    TITLE "14:cjc025_6723"
    INDEX 01 02:48:23
  TRACK 90 AUDIO
    TITLE "14:cjc025_6724"
    INDEX 01 02:50:04
  TRACK 91 AUDIO
    TITLE "14:cjc025_6725"
    INDEX 01 02:52:05
  TRACK 92 AUDIO
    TITLE "14:cjc025_6726"
    INDEX 01 02:54:04
  TRACK 93 AUDIO
    TITLE "14:cjc025_6727"
    INDEX 01 02:55:66
  TRACK 94 AUDIO
    TITLE "14:cjc025_6728"
    INDEX 01 02:57:57
  TRACK 95 AUDIO
    TITLE "14:cjc025_6729"
    INDEX 01 02:59:54
  TRACK 96 AUDIO
    TITLE "14:cjc025_6730"
    INDEX 01 03:01:60
  TRACK 97 AUDIO
    TITLE "14:cjc025_6731"
    INDEX 01 03:03:69
  TRACK 98 AUDIO
    TITLE "14:cjc025_6732"
    INDEX 01 03:05:56
  TRACK 99 AUDIO
    TITLE "14:cjc025_6733"
    INDEX 01 03:07:61
  TRACK 100 AUDIO
    TITLE "14:cjc025_6734"
    INDEX 01 03:09:48
  TRACK 101 AUDIO
    TITLE "14:cjc025_6735"
    INDEX 01 03:11:29
  TRACK 102 AUDIO
    TITLE "14:cjc025_6736"
    INDEX 01 03:13:19
  TRACK 103 AUDIO
    TITLE "14:cjc025_6737"
    INDEX 01 03:15:14
  TRACK 104 AUDIO
    TITLE "14:cjc025_6738"
    INDEX 01 03:16:70
  TRACK 105 AUDIO
    TITLE "14:cjc025_6739"
    INDEX 01 03:18:65
  TRACK 106 AUDIO
    TITLE "14:cjc025_6740"
    INDEX 01 03:20:64
  TRACK 107 AUDIO
    TITLE "14:cjc025_6741"
    INDEX 01 03:22:43
  TRACK 108 AUDIO
    TITLE "14:cjc025_6742"
    INDEX 01 03:24:36
  TRACK 109 AUDIO
    TITLE "14:cjc025_6743"
    INDEX 01 03:26:35
  TRACK 110 AUDIO
    TITLE "14:cjc025_6744"
    INDEX 01 03:28:28
  TRACK 111 AUDIO
    TITLE "14:cjc025_6745"
    INDEX 01 03:30:19
  TRACK 112 AUDIO
    TITLE "14:cjc025_6746"
    INDEX 01 03:32:16
  TRACK 113 AUDIO
    TITLE "14:cjc025_6747"
    INDEX 01 03:33:74
  TRACK 114 AUDIO
    TITLE "14:cjc025_6748"
    INDEX 01 03:35:53
  TRACK 115 AUDIO
    TITLE "14:cjc025_6749"
    INDEX 01 03:37:45
  TRACK 116 AUDIO
    TITLE "14:cjc025_6750"
    INDEX 01 03:39:34
  TRACK 117 AUDIO
    TITLE "14:cjc025_6751"
    INDEX 01 03:41:17
  TRACK 118 AUDIO
    TITLE "14:cjc025_6752"
    INDEX 01 03:43:06
  TRACK 119 AUDIO
    TITLE "14:cjc025_6753"
    INDEX 01 03:45:05
  TRACK 120 AUDIO
    TITLE "14:cjc025_6754"
    INDEX 01 03:46:73
  TRACK 121 AUDIO
    TITLE "14:cjc025_6755"
    INDEX 01 03:48:60
  TRACK 122 AUDIO
    TITLE "14:cjc025_6756"
    INDEX 01 03:50:49
  TRACK 123 AUDIO
    TITLE "14:cjc025_6757"
    INDEX 01 03:52:48
  TRACK 124 AUDIO
    TITLE "14:cjc025_6758"
    INDEX 01 03:54:47
  TRACK 125 AUDIO
    TITLE "14:cjc025_6759"
    INDEX 01 03:56:42
  TRACK 126 AUDIO
    TITLE "14:cjc025_6760"
    INDEX 01 03:58:31
  TRACK 127 AUDIO
    TITLE "14:cjc025_6761"
    INDEX 01 04:00:28
  TRACK 128 AUDIO
    TITLE "14:cjc025_6762"
    INDEX 01 04:02:05
  TRACK 129 AUDIO
    TITLE "14:cjc025_6763"
    INDEX 01 04:04:04
  TRACK 130 AUDIO
    TITLE "14:cjc025_6764"
    INDEX 01 04:06:01
  TRACK 131 AUDIO
    TITLE "14:cjc025_6765"
    INDEX 01 04:07:57
  TRACK 132 AUDIO
    TITLE "14:cjc025_6766"
    INDEX 01 04:09:45
  TRACK 133 AUDIO
    TITLE "14:cjc025_6767"
    INDEX 01 04:11:30
  TRACK 134 AUDIO
    TITLE "14:cjc025_6768"
    INDEX 01 04:13:27
  TRACK 135 AUDIO
    TITLE "14:cjc025_6769"
    INDEX 01 04:15:20
  TRACK 136 AUDIO
    TITLE "14:cjc025_6770"
    INDEX 01 04:17:03
  TRACK 137 AUDIO
    TITLE "14:cjc025_6771"
    INDEX 01 04:18:71
  TRACK 138 AUDIO
    TITLE "14:cjc025_6772"
    INDEX 01 04:20:62
  TRACK 139 AUDIO
    TITLE "14:cjc025_6773"
    INDEX 01 04:22:43
  TRACK 140 AUDIO
    TITLE "14:cjc025_6774"
    INDEX 01 04:24:28
  TRACK 141 AUDIO
    TITLE "14:cjc025_6775"
    INDEX 01 04:26:18
  TRACK 142 AUDIO
    TITLE "14:cjc025_6776"
    INDEX 01 04:28:09
  TRACK 143 AUDIO
    TITLE "14:cjc025_6777"
    INDEX 01 04:29:73
  TRACK 144 AUDIO
    TITLE "14:cjc025_6778"
    INDEX 01 04:31:52
  TRACK 145 AUDIO
    TITLE "14:cjc025_6779"
    INDEX 01 04:33:74
  TRACK 146 AUDIO
    TITLE "14:cjc025_6780"
    INDEX 01 04:36:00
  TRACK 147 AUDIO
    TITLE "14:cjc025_6781"
    INDEX 01 04:37:74
  TRACK 148 AUDIO
    TITLE "14:cjc025_6782"
    INDEX 01 04:39:61
  TRACK 149 AUDIO
    TITLE "14:cjc025_6783"
    INDEX 01 04:41:54
  TRACK 150 AUDIO
    TITLE "14:cjc025_6784"
    INDEX 01 04:43:49
  TRACK 151 AUDIO
    TITLE "14:cjc025_6785"
    INDEX 01 04:45:46
  TRACK 152 AUDIO
    TITLE "14:cjc025_6786"
    INDEX 01 04:47:45
  TRACK 153 AUDIO
    TITLE "14:cjc025_6787"
    INDEX 01 04:49:40
  TRACK 154 AUDIO
    TITLE "14:cjc025_6788"
    INDEX 01 04:51:25
  TRACK 155 AUDIO
    TITLE "14:cjc025_6789"
    INDEX 01 04:53:14
  TRACK 156 AUDIO
    TITLE "14:cjc025_6790"
    INDEX 01 04:55:23
  TRACK 157 AUDIO
    TITLE "14:cjc025_6791"
    INDEX 01 04:57:18
  TRACK 158 AUDIO
    TITLE "14:cjc025_6792"
    INDEX 01 04:59:17
  TRACK 159 AUDIO
    TITLE "14:cjc025_6793"
    INDEX 01 05:01:26
  TRACK 160 AUDIO
    TITLE "14:cjc025_6794"
    INDEX 01 05:02:74
  TRACK 161 AUDIO
    TITLE "14:cjc025_6795"
    INDEX 01 05:05:08
  TRACK 162 AUDIO
    TITLE "14:cjc025_6796"
    INDEX 01 05:07:03
  TRACK 163 AUDIO
    TITLE "14:cjc025_6797"
    INDEX 01 05:09:06
  TRACK 164 AUDIO
    TITLE "14:cjc025_6798"
    INDEX 01 05:10:52
  TRACK 165 AUDIO
    TITLE "14:cjc025_6799"
    INDEX 01 05:12:45
  TRACK 166 AUDIO
    TITLE "14:cjc025_6800"
    INDEX 01 05:14:28
  TRACK 167 AUDIO
    TITLE "14:cjc025_6801"
    INDEX 01 05:16:29
  TRACK 168 AUDIO
    TITLE "14:cjc025_6802"
    INDEX 01 05:18:28
  TRACK 169 AUDIO
    TITLE "14:cjc025_6803"
    INDEX 01 05:20:09
  TRACK 170 AUDIO
    TITLE "14:cjc025_6804"
    INDEX 01 05:21:73
  TRACK 171 AUDIO
    TITLE "14:cjc025_6805"
    INDEX 01 05:23:57
  TRACK 172 AUDIO
    TITLE "14:cjc025_6806"
    INDEX 01 05:25:50
  TRACK 173 AUDIO
    TITLE "14:cjc025_6807"
    INDEX 01 05:27:43
  TRACK 174 AUDIO
    TITLE "14:cjc025_6808"
    INDEX 01 05:29:20
  TRACK 175 AUDIO
    TITLE "14:cjc025_6809"
    INDEX 01 05:31:15
  TRACK 176 AUDIO
    TITLE "14:cjc025_6810"
    INDEX 01 05:33:08
  TRACK 177 AUDIO
    TITLE "14:cjc025_6811"
    INDEX 01 05:35:01
  TRACK 178 AUDIO
    TITLE "14:cjc025_6812"
    INDEX 01 05:36:57
  TRACK 179 AUDIO
    TITLE "14:cjc025_6813"
    INDEX 01 05:38:62
  TRACK 180 AUDIO
    TITLE "14:cjc025_6814"
    INDEX 01 05:40:49
  TRACK 181 AUDIO
    TITLE "14:cjc025_6815"
    INDEX 01 05:42:40
  TRACK 182 AUDIO
    TITLE "14:cjc025_6816"
    INDEX 01 05:44:47
  TRACK 183 AUDIO
    TITLE "14:cjc025_6817"
    INDEX 01 05:46:38
  TRACK 184 AUDIO
    TITLE "14:cjc025_6818"
    INDEX 01 05:48:25
  TRACK 185 AUDIO
    TITLE "14:cjc025_6819"
    INDEX 01 05:50:05
  TRACK 186 AUDIO
    TITLE "14:cjc025_6820"
    INDEX 01 05:51:69
  TRACK 187 AUDIO
    TITLE "14:cjc025_6821"
    INDEX 01 05:53:69
  TRACK 188 AUDIO
    TITLE "14:cjc025_6822"
    INDEX 01 05:55:12
  TRACK 189 AUDIO
    TITLE "14:cjc025_6823"
    INDEX 01 05:57:10
  TRACK 190 AUDIO
    TITLE "14:cjc025_6824"
    INDEX 01 05:59:05
  TRACK 191 AUDIO
    TITLE "14:cjc025_6825"
    INDEX 01 06:00:72
  TRACK 192 AUDIO
    TITLE "14:cjc025_6826"
    INDEX 01 06:02:70
  TRACK 193 AUDIO
    TITLE "14:cjc025_6827"
    INDEX 01 06:04:65
  TRACK 194 AUDIO
    TITLE "14:cjc025_6828"
    INDEX 01 06:06:04
  TRACK 195 AUDIO
    TITLE "14:cjc025_6829"
    INDEX 01 06:07:60
  TRACK 196 AUDIO
    TITLE "14:cjc025_6830"
    INDEX 01 06:09:49
  TRACK 197 AUDIO
    TITLE "14:cjc025_6831"
    INDEX 01 06:11:52
  TRACK 198 AUDIO
    TITLE "14:cjc025_6832"
    INDEX 01 06:13:39
  TRACK 199 AUDIO
    TITLE "14:cjc025_6833"
    INDEX 01 06:15:46
  TRACK 200 AUDIO
    TITLE "14:cjc025_6834"
    INDEX 01 06:17:41
  TRACK 201 AUDIO
    TITLE "14:cjc025_6835"
    INDEX 01 06:19:32
  TRACK 202 AUDIO
    TITLE "14:cjc025_6836"
    INDEX 01 06:21:38
  TRACK 203 AUDIO
    TITLE "14:cjc025_6837"
    INDEX 01 06:23:24
  TRACK 204 AUDIO
    TITLE "14:cjc025_6838"
    INDEX 01 06:25:03
  TRACK 205 AUDIO
    TITLE "14:cjc025_6839"
    INDEX 01 06:27:12
  TRACK 206 AUDIO
    TITLE "14:cjc025_6840"
    INDEX 01 06:29:10
  TRACK 207 AUDIO
    TITLE "14:cjc025_6841"
    INDEX 01 06:31:00
  TRACK 208 AUDIO
    TITLE "14:cjc025_6842"
    INDEX 01 06:32:56
  TRACK 209 AUDIO
    TITLE "14:cjc025_6843"
    INDEX 01 06:34:33
  TRACK 210 AUDIO
    TITLE "14:cjc025_6844"
    INDEX 01 06:36:24
  TRACK 211 AUDIO
    TITLE "14:cjc025_6845"
    INDEX 01 06:38:13
  TRACK 212 AUDIO
    TITLE "14:cjc025_6846"
    INDEX 01 06:40:34
  TRACK 213 AUDIO
    TITLE "14:cjc025_6847"
    INDEX 01 06:42:21
  TRACK 214 AUDIO
    TITLE "14:cjc025_6848"
    INDEX 01 06:44:08
  TRACK 215 AUDIO
    TITLE "14:cjc025_6849"
    INDEX 01 06:45:68
  TRACK 216 AUDIO
    TITLE "14:cjc025_6850"
    INDEX 01 06:47:55
  TRACK 217 AUDIO
    TITLE "14:cjc025_6851"
    INDEX 01 06:49:46
  TRACK 218 AUDIO
    TITLE "14:cjc025_6852"
    INDEX 01 06:51:45
  TRACK 219 AUDIO
    TITLE "14:cjc025_6853"
    INDEX 01 06:53:29
  TRACK 220 AUDIO
    TITLE "14:cjc025_6854"
    INDEX 01 06:55:22
  TRACK 221 AUDIO
    TITLE "14:cjc025_6855"
    INDEX 01 06:57:03
  TRACK 222 AUDIO
    TITLE "14:cjc025_6856"
    INDEX 01 06:58:59
  TRACK 223 AUDIO
    TITLE "14:cjc025_6857"
    INDEX 01 07:00:64
  TRACK 224 AUDIO
    TITLE "14:cjc025_6858"
    INDEX 01 07:02:61
  TRACK 225 AUDIO
    TITLE "14:cjc025_6859"
    INDEX 01 07:04:50
  TRACK 226 AUDIO
    TITLE "14:cjc025_6860"
    INDEX 01 07:06:43
  TRACK 227 AUDIO
    TITLE "14:cjc025_6861"
    INDEX 01 07:08:42
  TRACK 228 AUDIO
    TITLE "14:cjc025_6862"
    INDEX 01 07:10:33
  TRACK 229 AUDIO
    TITLE "14:cjc025_6863"
    INDEX 01 07:12:42
  TRACK 230 AUDIO
    TITLE "14:cjc025_6864"
    INDEX 01 07:14:37
  TRACK 231 AUDIO
    TITLE "14:cjc025_6865"
    INDEX 01 07:16:34
  TRACK 232 AUDIO
    TITLE "14:cjc025_6866"
    INDEX 01 07:18:50
  TRACK 233 AUDIO
    TITLE "14:cjc025_6867"
    INDEX 01 07:20:59
  TRACK 234 AUDIO
    TITLE "14:cjc025_6868"
    INDEX 01 07:22:54
  TRACK 235 AUDIO
    TITLE "14:cjc025_6869"
    INDEX 01 07:24:57
  TRACK 236 AUDIO
    TITLE "14:cjc025_6870"
    INDEX 01 07:26:63
  TRACK 237 AUDIO
    TITLE "14:cjc025_6871"
    INDEX 01 07:28:50
  TRACK 238 AUDIO
    TITLE "14:cjc025_6872"
    INDEX 01 07:30:40
  TRACK 239 AUDIO
    TITLE "14:cjc025_6873"
    INDEX 01 07:32:23
  TRACK 240 AUDIO
    TITLE "14:cjc025_6874"
    INDEX 01 07:34:12
  TRACK 241 AUDIO
    TITLE "14:cjc025_6875"
    INDEX 01 07:36:01
  TRACK 242 AUDIO
    TITLE "14:cjc025_6876"
    INDEX 01 07:37:71
  TRACK 243 AUDIO
    TITLE "14:cjc025_6877"
    INDEX 01 07:39:64
  TRACK 244 AUDIO
    TITLE "14:cjc025_6878"
    INDEX 01 07:41:51
  TRACK 245 AUDIO
    TITLE "14:cjc025_6879"
    INDEX 01 07:43:34
  TRACK 246 AUDIO
    TITLE "14:cjc025_6880"
    INDEX 01 07:45:23
  TRACK 247 AUDIO
    TITLE "14:cjc025_6881"
    INDEX 01 07:47:20
  TRACK 248 AUDIO
    TITLE "14:cjc025_6882"
    INDEX 01 07:49:15
  TRACK 249 AUDIO
    TITLE "14:cjc025_6883"
    INDEX 01 07:51:10
  TRACK 250 AUDIO
    TITLE "14:cjc025_6884"
    INDEX 01 07:53:03
  TRACK 251 AUDIO
    TITLE "14:cjc025_6885"
    INDEX 01 07:54:69
  TRACK 252 AUDIO
    TITLE "14:cjc025_6886"
    INDEX 01 07:56:62
  TRACK 253 AUDIO
    TITLE "14:cjc025_6887"
    INDEX 01 07:58:61
  TRACK 254 AUDIO
    TITLE "14:cjc025_6888"
    INDEX 01 08:00:64
  TRACK 255 AUDIO
    TITLE "14:cjc025_6889"
    INDEX 01 08:02:59
  TRACK 256 AUDIO
    TITLE "14:cjc025_6890"
    INDEX 01 08:04:58
  TRACK 257 AUDIO
    TITLE "14:cjc025_6891"
    INDEX 01 08:06:49
  TRACK 258 AUDIO
    TITLE "14:cjc025_6892"
    INDEX 01 08:08:48
  TRACK 259 AUDIO
    TITLE "14:cjc025_6893"
    INDEX 01 08:10:31
  TRACK 260 AUDIO
    TITLE "14:cjc025_6894"
    INDEX 01 08:12:36
  TRACK 261 AUDIO
    TITLE "14:cjc025_6895"
    INDEX 01 08:14:23
  TRACK 262 AUDIO
    TITLE "14:cjc025_6896"
    INDEX 01 08:16:16
  TRACK 263 AUDIO
    TITLE "14:cjc025_6897"
    INDEX 01 08:18:09
  TRACK 264 AUDIO
    TITLE "14:cjc025_6898"
    INDEX 01 08:20:00
  TRACK 265 AUDIO
    TITLE "14:cjc025_6899"
    INDEX 01 08:21:72
  TRACK 266 AUDIO
    TITLE "14:cjc025_6900"
    INDEX 01 08:24:04
  TRACK 267 AUDIO
    TITLE "14:cjc025_6901"
    INDEX 01 08:25:68
  TRACK 268 AUDIO
    TITLE "14:cjc025_6902"
    INDEX 01 08:27:61
  TRACK 269 AUDIO
    TITLE "14:cjc025_6903"
    INDEX 01 08:29:44
  TRACK 270 AUDIO
    TITLE "14:cjc025_6904"
    INDEX 01 08:31:39
  TRACK 271 AUDIO
    TITLE "14:cjc025_6905"
    INDEX 01 08:33:34
  TRACK 272 AUDIO
    TITLE "14:cjc025_6906"
    INDEX 01 08:35:14
  TRACK 273 AUDIO
    TITLE "14:cjc025_6907"
    INDEX 01 08:37:09
  TRACK 274 AUDIO
    TITLE "14:cjc025_6908"
    INDEX 01 08:38:69
  TRACK 275 AUDIO
    TITLE "14:cjc025_6909"
    INDEX 01 08:40:58
  TRACK 276 AUDIO
    TITLE "14:cjc025_6910"
    INDEX 01 08:42:61
  TRACK 277 AUDIO
    TITLE "14:cjc025_6911"
    INDEX 01 08:44:61
  TRACK 278 AUDIO
    TITLE "14:cjc025_6912"
    INDEX 01 08:46:62
  TRACK 279 AUDIO
    TITLE "14:cjc025_6913"
    INDEX 01 08:48:06
  TRACK 280 AUDIO
    TITLE "14:cjc025_6914"
    INDEX 01 08:50:09
  TRACK 281 AUDIO
    TITLE "14:cjc025_6915"
    INDEX 01 08:52:02
  TRACK 282 AUDIO
    TITLE "14:cjc025_6916"
    INDEX 01 08:53:66
  TRACK 283 AUDIO
    TITLE "14:cjc025_6917"
    INDEX 01 08:55:46
  TRACK 284 AUDIO
    TITLE "14:cjc025_6918"
    INDEX 01 08:57:46
  TRACK 285 AUDIO
    TITLE "14:cjc025_6919"
    INDEX 01 08:59:36
  TRACK 286 AUDIO
    TITLE "14:cjc025_6920"
    INDEX 01 09:01:38
  TRACK 287 AUDIO
    TITLE "14:cjc025_6921"
    INDEX 01 09:03:33
  TRACK 288 AUDIO
    TITLE "14:cjc025_6922"
    INDEX 01 09:05:24
  TRACK 289 AUDIO
    TITLE "14:cjc025_6923"
    INDEX 01 09:07:15
  TRACK 290 AUDIO
    TITLE "14:cjc025_6924"
    INDEX 01 09:09:16
  TRACK 291 AUDIO
    TITLE "14:cjc025_6925"
    INDEX 01 09:10:67
  TRACK 292 AUDIO
    TITLE "14:cjc025_6926"
    INDEX 01 09:13:14
  TRACK 293 AUDIO
    TITLE "14:cjc025_6927"
    INDEX 01 09:15:09
  TRACK 294 AUDIO
    TITLE "14:cjc025_6928"
    INDEX 01 09:17:00
  TRACK 295 AUDIO
    TITLE "14:cjc025_6929"
    INDEX 01 09:18:74
  TRACK 296 AUDIO
    TITLE "14:cjc025_6930"
    INDEX 01 09:20:59
  TRACK 297 AUDIO
    TITLE "14:cjc025_6931"
    INDEX 01 09:22:52
  TRACK 298 AUDIO
    TITLE "14:cjc025_6932"
    INDEX 01 09:24:49
  TRACK 299 AUDIO
    TITLE "14:cjc025_6933"
    INDEX 01 09:26:48
  TRACK 300 AUDIO
    TITLE "14:cjc025_6934"
    INDEX 01 09:28:41
  TRACK 301 AUDIO
    TITLE "14:cjc025_6935"
    INDEX 01 09:30:36
  TRACK 302 AUDIO
    TITLE "14:cjc025_6936"
    INDEX 01 09:32:51
  TRACK 303 AUDIO
    TITLE "14:cjc025_6937"
    INDEX 01 09:34:28
  TRACK 304 AUDIO
    TITLE "14:cjc025_6938"
    INDEX 01 09:36:33
  TRACK 305 AUDIO
    TITLE "14:cjc025_6939"
    INDEX 01 09:38:18
  TRACK 306 AUDIO
    TITLE "14:cjc025_6940"
    INDEX 01 09:40:05
  TRACK 307 AUDIO
    TITLE "14:cjc025_6941"
    INDEX 01 09:42:06
  TRACK 308 AUDIO
    TITLE "14:cjc025_6942"
    INDEX 01 09:44:05
  TRACK 309 AUDIO
    TITLE "14:cjc025_6943"
    INDEX 01 09:45:59
  TRACK 310 AUDIO
    TITLE "14:cjc025_6944"
    INDEX 01 09:47:40
  TRACK 311 AUDIO
    TITLE "14:cjc025_6945"
    INDEX 01 09:49:35
  TRACK 312 AUDIO
    TITLE "14:cjc025_6946"
    INDEX 01 09:51:38
  TRACK 313 AUDIO
    TITLE "14:cjc025_6947"
    INDEX 01 09:53:29
  TRACK 314 AUDIO
    TITLE "14:cjc025_6948"
    INDEX 01 09:55:28
  TRACK 315 AUDIO
    TITLE "14:cjc025_6949"
    INDEX 01 09:57:17
  TRACK 316 AUDIO
    TITLE "14:cjc025_6950"
    INDEX 01 09:59:26
  TRACK 317 AUDIO
    TITLE "14:cjc025_6951"
    INDEX 01 10:01:17
  TRACK 318 AUDIO
    TITLE "14:cjc025_6952"
    INDEX 01 10:03:02
  TRACK 319 AUDIO
    TITLE "14:cjc025_6953"
    INDEX 01 10:05:05
  TRACK 320 AUDIO
    TITLE "14:cjc025_6954"
    INDEX 01 10:06:67
  TRACK 321 AUDIO
    TITLE "14:cjc025_6955"
    INDEX 01 10:08:50
  TRACK 322 AUDIO
    TITLE "14:cjc025_6956"
    INDEX 01 10:10:45
  TRACK 323 AUDIO
    TITLE "14:cjc025_6957"
    INDEX 01 10:12:42
  TRACK 324 AUDIO
    TITLE "14:cjc025_6958"
    INDEX 01 10:14:43
  TRACK 325 AUDIO
    TITLE "14:cjc025_6959"
    INDEX 01 10:16:21
  TRACK 326 AUDIO
    TITLE "14:cjc025_6960"
    INDEX 01 10:18:14
  TRACK 327 AUDIO
    TITLE "14:cjc025_6961"
    INDEX 01 10:20:01
  TRACK 328 AUDIO
    TITLE "14:cjc025_6962"
    INDEX 01 10:22:06
  TRACK 329 AUDIO
    TITLE "14:cjc025_6963"
    INDEX 01 10:24:00
  TRACK 330 AUDIO
    TITLE "14:cjc025_6964"
    INDEX 01 10:25:61
  TRACK 331 AUDIO
    TITLE "14:cjc025_6965"
    INDEX 01 10:27:52
  TRACK 332 AUDIO
    TITLE "14:cjc025_6966"
    INDEX 01 10:29:51
  TRACK 333 AUDIO
    TITLE "14:cjc025_6967"
    INDEX 01 10:31:42
  TRACK 334 AUDIO
    TITLE "14:cjc025_6968"
    INDEX 01 10:33:41
  TRACK 335 AUDIO
    TITLE "14:cjc025_6969"
    INDEX 01 10:35:36
  TRACK 336 AUDIO
    TITLE "14:cjc025_6970"
    INDEX 01 10:37:25
  TRACK 337 AUDIO
    TITLE "14:cjc025_6971"
    INDEX 01 10:39:16
  TRACK 338 AUDIO
    TITLE "14:cjc025_6972"
    INDEX 01 10:41:11
  TRACK 339 AUDIO
    TITLE "14:cjc025_6973"
    INDEX 01 10:42:73
  TRACK 340 AUDIO
    TITLE "14:cjc025_6974"
    INDEX 01 10:44:72
  TRACK 341 AUDIO
    TITLE "14:cjc025_6975"
    INDEX 01 10:46:55
  TRACK 342 AUDIO
    TITLE "14:cjc025_6976"
    INDEX 01 10:48:40
  TRACK 343 AUDIO
    TITLE "14:cjc025_6977"
    INDEX 01 10:50:27
  TRACK 344 AUDIO
    TITLE "14:cjc025_6978"
    INDEX 01 10:52:18
  TRACK 345 AUDIO
    TITLE "14:cjc025_6979"
    INDEX 01 10:54:09
  TRACK 346 AUDIO
    TITLE "14:cjc025_6980"
    INDEX 01 10:55:68
  TRACK 347 AUDIO
    TITLE "14:cjc025_6981"
    INDEX 01 10:57:63
  TRACK 348 AUDIO
    TITLE "14:cjc025_6982"
    INDEX 01 10:59:48
  TRACK 349 AUDIO
    TITLE "14:cjc025_6983"
    INDEX 01 11:01:39
  TRACK 350 AUDIO
    TITLE "14:cjc025_6984"
    INDEX 01 11:03:32
  TRACK 351 AUDIO
    TITLE "14:cjc025_6985"
    INDEX 01 11:05:25
  TRACK 352 AUDIO
    TITLE "14:cjc025_6986"
    INDEX 01 11:07:14
  TRACK 353 AUDIO
    TITLE "14:cjc025_6987"
    INDEX 01 11:09:29
  TRACK 354 AUDIO
    TITLE "14:cjc025_6988"
    INDEX 01 11:11:20
  TRACK 355 AUDIO
    TITLE "14:cjc025_6989"
    INDEX 01 11:13:11
  TRACK 356 AUDIO
    TITLE "14:cjc025_6990"
    INDEX 01 11:15:06
  TRACK 357 AUDIO
    TITLE "14:cjc025_6991"
    INDEX 01 11:17:05
  TRACK 358 AUDIO
    TITLE "14:cjc025_6992"
    INDEX 01 11:19:03
  TRACK 359 AUDIO
    TITLE "14:cjc025_6993"
    INDEX 01 11:20:62
  TRACK 360 AUDIO
    TITLE "14:cjc025_6994"
    INDEX 01 11:22:57
  TRACK 361 AUDIO
    TITLE "14:cjc025_6995"
    INDEX 01 11:24:56
  TRACK 362 AUDIO
    TITLE "14:cjc025_6996"
    INDEX 01 11:26:47
  TRACK 363 AUDIO
    TITLE "14:cjc025_6997"
    INDEX 01 11:28:34
  TRACK 364 AUDIO
    TITLE "14:cjc025_6998"
    INDEX 01 11:29:43
  TRACK 365 AUDIO
    TITLE "14:cjc025_6999"
    INDEX 01 11:31:28
  TRACK 366 AUDIO
    TITLE "14:cjc025_7000"
    INDEX 01 11:33:19
  TRACK 367 AUDIO
    TITLE "14:cjc025_7001"
    INDEX 01 11:35:24
  TRACK 368 AUDIO
    TITLE "14:cjc025_7002"
    INDEX 01 11:37:03
  TRACK 369 AUDIO
    TITLE "14:cjc025_7003"
    INDEX 01 11:39:14
  TRACK 370 AUDIO
    TITLE "14:cjc025_7004"
    INDEX 01 11:41:03
  TRACK 371 AUDIO
    TITLE "14:cjc025_7005"
    INDEX 01 11:42:59
  TRACK 372 AUDIO
    TITLE "14:cjc025_7006"
    INDEX 01 11:44:52
  TRACK 373 AUDIO
    TITLE "14:cjc025_7007"
    INDEX 01 11:46:36
  TRACK 374 AUDIO
    TITLE "14:cjc025_7008"
    INDEX 01 11:48:25
  TRACK 375 AUDIO
    TITLE "14:cjc025_7009"
    INDEX 01 11:50:12
  TRACK 376 AUDIO
    TITLE "14:cjc025_7010"
    INDEX 01 11:52:17
  TRACK 377 AUDIO
    TITLE "14:cjc025_7011"
    INDEX 01 11:54:08
  TRACK 378 AUDIO
    TITLE "14:cjc025_7012"
    INDEX 01 11:56:05
  TRACK 379 AUDIO
    TITLE "14:cjc025_7013"
    INDEX 01 11:57:63
  TRACK 380 AUDIO
    TITLE "14:cjc025_7014"
    INDEX 01 11:59:58
  TRACK 381 AUDIO
    TITLE "14:cjc025_7015"
    INDEX 01 12:01:61
  TRACK 382 AUDIO
    TITLE "14:cjc025_7016"
    INDEX 01 12:03:65
  TRACK 383 AUDIO
    TITLE "14:cjc025_7017"
    INDEX 01 12:05:64
  TRACK 384 AUDIO
    TITLE "14:cjc025_7018"
    INDEX 01 12:07:51
  TRACK 385 AUDIO
    TITLE "14:cjc025_7019"
    INDEX 01 12:09:33
  TRACK 386 AUDIO
    TITLE "14:cjc025_7020"
    INDEX 01 12:11:24
  TRACK 387 AUDIO
    TITLE "14:cjc025_7021"
    INDEX 01 12:13:13
  TRACK 388 AUDIO
    TITLE "14:cjc025_7022"
    INDEX 01 12:14:73
  TRACK 389 AUDIO
    TITLE "14:cjc025_7023"
    INDEX 01 12:16:62
  TRACK 390 AUDIO
    TITLE "14:cjc025_7024"
    INDEX 01 12:18:61
  TRACK 391 AUDIO
    TITLE "14:cjc025_7025"
    INDEX 01 12:20:66
  TRACK 392 AUDIO
    TITLE "14:cjc025_7026"
    INDEX 01 12:22:49
  TRACK 393 AUDIO
    TITLE "14:cjc025_7027"
    INDEX 01 12:24:32
  TRACK 394 AUDIO
    TITLE "14:cjc025_7028"
    INDEX 01 12:26:25
  TRACK 395 AUDIO
    TITLE "0:"
    INDEX 01 12:28:12
